<svg xmlns="http://www.w3.org/2000/svg" width="180" height="180" viewBox="0 0 180 180" role="img" aria-labelledby="wum-mark-title wum-mark-desc">
  <title id="wum-mark-title">WUM mark</title>
  <desc id="wum-mark-desc">Orbital update core with a W terminal monogram.</desc>
  <defs>
    <linearGradient id="wum-mark-bg" x1="18" y1="16" x2="164" y2="166" gradientUnits="userSpaceOnUse">
      <stop stop-color="#08111F"/>
      <stop offset=".48" stop-color="#123C83"/>
      <stop offset="1" stop-color="#6D35F3"/>
    </linearGradient>
    <linearGradient id="wum-mark-stroke" x1="28" y1="30" x2="152" y2="150" gradientUnits="userSpaceOnUse">
      <stop stop-color="#62F4D7"/>
      <stop offset=".55" stop-color="#5B9DFF"/>
      <stop offset="1" stop-color="#B69BFF"/>
    </linearGradient>
  </defs>
  <rect x="18" y="18" width="144" height="144" rx="34" fill="url(#wum-mark-bg)"/>
  <rect x="21.5" y="21.5" width="137" height="137" rx="30" fill="none" stroke="url(#wum-mark-stroke)" stroke-width="3" opacity=".8"/>
  <path d="M39 51h104M39 90h104M39 129h104M58 36v108M97 36v108M136 36v108" stroke="#FFFFFF" stroke-opacity=".08" stroke-width="2"/>
  <path d="M123 56a46 46 0 1 1-70 57" fill="none" stroke="#62F4D7" stroke-width="8" stroke-linecap="round"/>
  <path d="M123 56l-2 22 19-11" fill="none" stroke="#62F4D7" stroke-width="8" stroke-linecap="round" stroke-linejoin="round"/>
  <path d="M44 67 61 124 87 73l25 51 24-57" fill="none" stroke="#F8FBFF" stroke-width="13" stroke-linecap="round" stroke-linejoin="round"/>
  <path d="M51 141h72" stroke="#F8FBFF" stroke-width="8" stroke-linecap="round" opacity=".92"/>
  <path d="M49 122l14 13-14 13" fill="none" stroke="#62F4D7" stroke-width="7" stroke-linecap="round" stroke-linejoin="round"/>
</svg>
