<svg xmlns="http://www.w3.org/2000/svg" width="1200" height="630" viewBox="0 0 1200 630" role="img" aria-labelledby="wum-social-title wum-social-desc">
  <title id="wum-social-title">WUM - Windows Update Manager CLI</title>
  <desc id="wum-social-desc">A modern .NET command-line tool for managing Windows Updates.</desc>
  <defs>
    <linearGradient id="wum-social-bg" x1="0" y1="0" x2="1200" y2="630" gradientUnits="userSpaceOnUse">
      <stop stop-color="#050B14"/>
      <stop offset=".55" stop-color="#0B1530"/>
      <stop offset="1" stop-color="#21164A"/>
    </linearGradient>
    <linearGradient id="wum-social-mark" x1="172" y1="120" x2="370" y2="318" gradientUnits="userSpaceOnUse">
      <stop stop-color="#08111F"/>
      <stop offset=".48" stop-color="#123C83"/>
      <stop offset="1" stop-color="#6D35F3"/>
    </linearGradient>
    <linearGradient id="wum-social-word" x1="438" y1="160" x2="770" y2="260" gradientUnits="userSpaceOnUse">
      <stop stop-color="#62F4D7"/>
      <stop offset=".48" stop-color="#5B9DFF"/>
      <stop offset="1" stop-color="#B69BFF"/>
    </linearGradient>
  </defs>
  <rect width="1200" height="630" fill="url(#wum-social-bg)"/>
  <path d="M0 527c174-48 324-31 475 19 159 52 293 53 472-44 94-51 173-62 253-47v175H0Z" fill="#10223E" opacity=".72"/>
  <g opacity=".18" stroke="#62F4D7" stroke-width="1">
    <path d="M80 85h1040M80 165h1040M80 245h1040M80 325h1040M80 405h1040M80 485h1040"/>
    <path d="M120 55v520M240 55v520M360 55v520M480 55v520M600 55v520M720 55v520M840 55v520M960 55v520M1080 55v520"/>
  </g>
  <g>
    <rect x="172" y="120" width="198" height="198" rx="46" fill="url(#wum-social-mark)"/>
    <rect x="177" y="125" width="188" height="188" rx="41" fill="none" stroke="#62F4D7" stroke-width="4" opacity=".78"/>
    <path d="M201 166h139M201 219h139M201 272h139M225 145v147M278 145v147M331 145v147" stroke="#FFFFFF" stroke-opacity=".08" stroke-width="3"/>
    <path d="M318 172a63 63 0 1 1-96 78" fill="none" stroke="#62F4D7" stroke-width="12" stroke-linecap="round"/>
    <path d="M318 172l-3 30 26-15" fill="none" stroke="#62F4D7" stroke-width="12" stroke-linecap="round" stroke-linejoin="round"/>
    <path d="M208 187 232 266 268 195l34 71 33-79" fill="none" stroke="#F8FBFF" stroke-width="17" stroke-linecap="round" stroke-linejoin="round"/>
    <path d="M218 290h99" stroke="#F8FBFF" stroke-width="11" stroke-linecap="round"/>
    <path d="M215 264l20 18-20 18" fill="none" stroke="#62F4D7" stroke-width="10" stroke-linecap="round" stroke-linejoin="round"/>
  </g>
  <text x="438" y="244" fill="url(#wum-social-word)" font-family="Segoe UI, Inter, Arial, sans-serif" font-size="106" font-weight="850">WUM</text>
  <text x="444" y="309" fill="#F8FBFF" font-family="Segoe UI, Inter, Arial, sans-serif" font-size="40" font-weight="700">Windows Update Manager CLI</text>
  <text x="446" y="374" fill="#C7D2E5" font-family="Segoe UI, Inter, Arial, sans-serif" font-size="28">List, install, pause, schedule, diagnose.</text>
  <text x="446" y="421" fill="#94A3B8" font-family="Segoe UI, Inter, Arial, sans-serif" font-size="24">Scriptable Windows updates powered by .NET 10.</text>
  <g font-family="Cascadia Code, Consolas, monospace" font-size="25">
    <rect x="446" y="474" width="398" height="58" rx="13" fill="#050B14" stroke="#2D4465"/>
    <text x="471" y="512" fill="#DCEBFF">wum status --json</text>
  </g>
</svg>
